<svg width="128" height="128" viewBox="0 0 128 128" fill="none" xmlns="http://www.w3.org/2000/svg">
<mask id="mask0_410_73" style="mask-type:luminance" maskUnits="userSpaceOnUse" x="2" y="0" width="106" height="128">
<path d="M38.9268 88.4377C41.8619 95.7696 41.7042 97.2964 48.6461 101.421C55.5908 105.546 61.9153 112.114 61.9153 112.114L73.6421 128L107.59 45.9807L75.6469 65.3782L67.0075 88.2869C67.0075 88.2869 45.1578 33.3251 43.5967 29.0678C42.0329 24.8105 37.3417 20.5531 37.3417 20.5531L2.1506 0.422729C2.1506 0.422729 35.9971 81.1084 38.9268 88.4377Z" fill="white"/>
</mask>
<g mask="url(#mask0_410_73)">
<path d="M105.195 -15.1275L-17.0622 3.32571L4.5407 143.56L126.798 125.106L105.195 -15.1275Z" fill="url(#paint0_linear_410_73)"/>
</g>
<mask id="mask1_410_73" style="mask-type:luminance" maskUnits="userSpaceOnUse" x="62" y="0" width="63" height="63">
<path d="M76.7429 29.3218C75.7565 29.9013 74.9974 30.7903 74.5804 31.846L62.6477 62.0575L111.955 32.4414C112.944 31.8487 113.701 30.9438 114.107 29.8722L125 0.996887L76.7456 29.3218H76.7429Z" fill="white"/>
</mask>
<g mask="url(#mask1_410_73)">
<path d="M123.578 -8.19623L53.4508 2.3887L64.0608 71.2632L134.188 60.6782L123.578 -8.19623Z" fill="url(#paint1_linear_410_73)"/>
</g>
<defs>
<linearGradient id="paint0_linear_410_73" x1="46.8415" y1="10.881" x2="64.4772" y2="127.721" gradientUnits="userSpaceOnUse">
<stop stop-color="#C09B6B"/>
<stop offset="1" stop-color="#956C49"/>
</linearGradient>
<linearGradient id="paint1_linear_410_73" x1="89.8428" y1="4.38878" x2="107.478" y2="121.229" gradientUnits="userSpaceOnUse">
<stop stop-color="#C09B6B"/>
<stop offset="1" stop-color="#956C49"/>
</linearGradient>
</defs>
</svg>
