<?xml version="1.0" encoding="UTF-8"?>
<svg version="1.1" xmlns="http://www.w3.org/2000/svg" width="74" height="82">
<path d="M0 0 C5.2208955 0.52935521 9.15952438 3.17071463 13.5625 5.8125 C14.31724609 6.25142578 15.07199219 6.69035156 15.84960938 7.14257812 C22.59164226 11.14027692 26.23511751 14.61489498 29.015625 22.1015625 C29.40666412 23.11807388 29.40666412 23.11807388 29.80560303 24.15512085 C30.35164572 25.5803469 30.89259751 27.00753277 31.42871094 28.43652344 C32.25138694 30.62869575 33.08909072 32.81464455 33.9296875 35 C34.4592121 36.38768583 34.98788801 37.77569586 35.515625 39.1640625 C35.8905307 40.14688705 35.8905307 40.14688705 36.27301025 41.14956665 C38 45.76509861 38 45.76509861 38 48 C38.66 48 39.32 48 40 48 C40.103125 47.113125 40.20625 46.22625 40.3125 45.3125 C41.18451167 41.11098922 42.25640249 38.30228877 45.7902832 35.6628418 C47.99318811 34.26921913 50.22902763 32.96705455 52.5 31.6875 C53.65822266 31.0059082 53.65822266 31.0059082 54.83984375 30.31054688 C60.58476269 27 60.58476269 27 64 27 C61.96142282 33.42002383 59.59103923 39.63693797 56.98828125 45.84765625 C56.61519333 46.74495956 56.24210541 47.64226288 55.85771179 48.5667572 C54.67893059 51.39991341 53.49579446 54.23122627 52.3125 57.0625 C51.50687149 58.99662403 50.70153019 60.93086773 49.89648438 62.86523438 C47.93430557 67.57821209 45.96822208 72.28954305 44 77 C40.55379139 75.8512638 39.90830804 74.92418358 37.8125 72.0625 C37.28269531 71.35222656 36.75289062 70.64195313 36.20703125 69.91015625 C35 68 35 68 35 66 C34.13024536 65.57605957 34.13024536 65.57605957 33.24291992 65.14355469 C23.81618577 60.33732602 20.86481821 54.54634491 17.1875 44.75 C16.68585215 43.46594716 16.18157906 42.18291712 15.67480469 40.90087891 C14.89419611 38.92430305 14.11572745 36.94711804 13.34646606 34.96609497 C11.57620205 30.41115538 9.7168985 25.90278028 7.78515625 21.4140625 C7.02005737 19.63563965 7.02005737 19.63563965 6.23950195 17.82128906 C5.26192955 15.55946115 4.28265585 13.29836763 3.30151367 11.03808594 C2.86685791 10.02262695 2.43220215 9.00716797 1.984375 7.9609375 C1.59991211 7.07196777 1.21544922 6.18299805 0.81933594 5.26708984 C0 3 0 3 0 0 Z " fill="#9B7852" transform="translate(0,4)"/>
<path d="M0 0 C-1.0660549 7.30852071 -2.65617401 15.43043049 -7.8515625 20.9765625 C-10.47646781 22.85944511 -13.18323785 24.41373534 -16 26 C-17.67897656 27.02342207 -19.35444389 28.05261224 -21.02734375 29.0859375 C-24.60256246 31.28022277 -28.18020869 33.46939008 -31.78125 35.62109375 C-32.54501953 36.0792749 -33.30878906 36.53745605 -34.09570312 37.00952148 C-36 38 -36 38 -38 38 C-37.66873799 33.25191124 -36.5037504 28.95391874 -35 24.4375 C-34.649375 23.36371094 -34.29875 22.28992188 -33.9375 21.18359375 C-31.17022725 16.63656291 -27.53096212 14.64798154 -23 12 C-22.11973145 11.47365967 -21.23946289 10.94731934 -20.33251953 10.4050293 C-17.59045637 8.78480826 -14.83043225 7.20056228 -12.0625 5.625 C-11.11826172 5.07972656 -10.17402344 4.53445312 -9.20117188 3.97265625 C-8.30076172 3.45832031 -7.40035156 2.94398437 -6.47265625 2.4140625 C-5.25461304 1.71724365 -5.25461304 1.71724365 -4.01196289 1.00634766 C-2 0 -2 0 0 0 Z " fill="#9E7D56" transform="translate(74,4)"/>
<path d="M0 0 C-0.55105909 3.9492568 -1.38935371 7.34920174 -3 11 C-4.0326802 8.21176345 -4.04509293 7.1322726 -3.0625 4.25 C-2.711875 3.5075 -2.36125 2.765 -2 2 C-2.66 1.67 -3.32 1.34 -4 1 C-2 0 -2 0 0 0 Z " fill="#635138" transform="translate(74,4)"/>
</svg>
