<svg width="125" height="47" viewBox="0 0 125 47" fill="none" xmlns="http://www.w3.org/2000/svg">
<g clip-path="url(#clip0_407_26)">
<path d="M115.596 17.6134L118.884 22.8509C119.002 22.8525 119.065 22.6874 119.121 22.6041C120.214 21.0015 121.097 19.1934 122.231 17.6134H125.001V29.0509H122.505V20.7438L119.618 25.3825C119.489 25.4744 118.153 25.4752 118.027 25.3825L115.141 20.803V29.0494H112.706V17.6118H115.597L115.596 17.6134Z" fill="white"/>
<path d="M82.5136 29.051V17.6134C85.6501 17.7762 89.5961 16.8651 91.8854 19.5719C93.5759 21.57 93.5067 25.3747 91.7359 27.3059C89.4506 29.7985 85.5353 28.8726 82.5136 29.0502M85.0703 27.0645H87.4139C90.7777 27.0645 91.5463 21.7623 88.9982 20.2003C88.5467 19.9238 87.6357 19.5999 87.1102 19.5999H85.0711V27.0645H85.0703Z" fill="white"/>
<path d="M66.079 17.6134C67.8845 17.7006 69.7977 17.4982 71.5905 17.6111C73.3724 17.7232 75.0417 18.4661 75.2014 20.4206C75.299 21.6019 74.8671 22.6469 73.8279 23.2606C73.5108 23.4474 73.2237 23.4926 72.9216 23.6273C72.85 23.66 72.8115 23.5985 72.8351 23.7535C75.3202 24.04 75.2171 27.2677 75.9999 29.051H73.322C73.0239 28.0207 72.8508 26.746 72.4 25.7789C72.2026 25.3553 71.6739 24.7175 71.161 24.7175H68.635V29.051H66.0782V17.6134H66.079ZM68.6358 22.7303H70.9793C71.1012 22.7303 71.5559 22.5909 71.6952 22.5348C72.8162 22.0863 72.9287 20.3544 71.8556 19.8164C71.7754 19.7759 71.2743 19.5999 71.2224 19.5999H68.6358V22.7295V22.7303Z" fill="white"/>
<path d="M102.722 17.6134V24.9877C102.722 26.1223 103.554 27.1657 104.707 27.2981C106.776 27.5372 107.647 26.5778 107.773 24.6256V17.6134H110.391L110.394 24.7494C110.203 28.1804 108.236 29.3897 104.944 29.2916C101.962 29.2028 100.282 27.9234 100.103 24.8693L100.105 17.6126H102.723L102.722 17.6134Z" fill="white"/>
<path d="M64.1312 17.6134V19.6006H58.4702V22.2482H63.5829V24.1755H58.4702V27.0645H64.1312V29.0509H55.9143V17.6134H64.1312Z" fill="white"/>
<path d="M46.1752 17.6134L49.1268 26.5832L52.0792 17.6134H54.8184L50.5294 29.0548L47.544 28.9918L43.4359 17.6134H46.1752Z" fill="white"/>
<path d="M80.0183 17.6134H77.4615V29.0509H80.0183V17.6134Z" fill="white"/>
<path d="M97.7312 17.6134H95.1745V29.0509H97.7312V17.6134Z" fill="white"/>
<path d="M72.6526 32.5427C72.8933 32.5691 73.1938 32.4648 73.3881 32.6283L76.1226 36.3357V32.633C76.2831 32.4617 76.5742 32.5699 76.7921 32.5427V37.3581L76.0321 37.2974L73.2622 33.5659V37.3581H72.6533V32.5427H72.6526Z" fill="white"/>
<path d="M105.969 33.1049C107.164 31.9236 109.545 32.4165 109.947 34.1553C110.399 36.1145 109.376 37.6268 107.256 37.4173C105.213 37.2164 104.728 34.3321 105.969 33.1049M107.333 33.0395C105.622 33.2879 105.56 36.4128 107.163 36.8488C109.936 37.6034 110.197 32.6244 107.333 33.0395Z" fill="white"/>
<path d="M88.7701 32.499C90.7148 32.2872 91.6446 33.6608 91.4543 35.455C91.1711 38.1205 87.0654 38.1205 86.7822 35.455C86.6303 34.0222 87.1841 32.6719 88.7701 32.499ZM88.7685 33.0394C87.0748 33.284 86.9938 36.412 88.5978 36.8496C90.4544 37.3542 91.1923 35.3732 90.5779 33.9279C90.253 33.164 89.5702 32.9242 88.7685 33.0402" fill="white"/>
<path d="M79.7004 32.499C81.6451 32.2872 82.575 33.6608 82.3846 35.455C82.1014 38.1205 77.9957 38.1205 77.7125 35.455C77.5607 34.0222 78.1145 32.6719 79.7004 32.499ZM79.6989 33.0394C78.0051 33.284 77.9241 36.412 79.5282 36.8496C81.3847 37.3542 82.1226 35.3732 81.5082 33.9279C81.1833 33.164 80.5005 32.9242 79.6989 33.0402" fill="white"/>
<path d="M96.7565 35.8233C96.5024 37.7007 93.5956 37.9748 92.6532 36.5109C91.8767 35.3055 92.1458 33.1531 93.6538 32.6345C94.8244 32.2319 96.5591 32.6073 96.6354 34.0479L95.9722 34.0408C95.8023 33.1352 94.8708 32.8619 94.0519 33.0885C92.4833 33.5238 92.5257 36.6986 94.2926 36.8769C95.2988 36.9781 96.1075 36.5786 96.0878 35.4923H94.6875V34.9504H96.7573C96.7313 35.2268 96.7935 35.5562 96.7573 35.8233" fill="white"/>
<path d="M115.261 32.5426V35.944C115.261 36.0522 115.496 36.5272 115.586 36.616C116.091 37.1152 117.364 37.0459 117.72 36.3894C117.748 36.3396 117.878 36.025 117.878 36.004V32.5426H118.609V35.8233C118.609 38.0239 114.531 38.0776 114.531 35.7633V32.5426H115.261Z" fill="white"/>
<path d="M119.278 35.9136H120.008C119.78 37.1292 122.267 37.2071 122.44 36.3022C122.546 35.7462 122.306 35.5383 121.834 35.3428C121.11 35.043 119.726 35.0057 119.503 34.0969C118.981 31.9812 122.843 32.0466 122.98 33.6733C123.005 33.9762 122.546 33.8672 122.317 33.8415C122.243 33.7893 122.273 33.6071 122.227 33.5098C121.834 32.6805 119.739 32.9117 120.177 33.9716C120.478 34.6996 122.742 34.438 123.085 35.6099C123.755 37.9063 119.271 38.1088 119.278 35.9136Z" fill="white"/>
<path d="M104.609 33.8672L103.941 33.8641C104.036 32.8378 101.902 32.7225 101.807 33.5954C101.759 34.037 101.899 34.1639 102.279 34.3352C103.307 34.7978 105.071 34.6677 104.777 36.3505C104.502 37.9203 100.776 37.8191 100.957 35.9129L101.621 35.9191C101.582 37.2958 104.378 37.2273 104.109 35.8973C103.981 35.2689 102.59 35.1334 102.054 34.9192C101.315 34.6241 100.851 34.0448 101.207 33.2404C101.735 32.0427 104.751 32.2709 104.61 33.8672" fill="white"/>
<path d="M69.1227 32.5426V34.8305L71.1586 32.6003L71.9839 32.5442L69.8543 34.8608L72.105 37.3581L71.279 37.3028L69.1227 34.9512V37.3589H68.3927V32.6337C68.5697 32.457 68.8883 32.5746 69.1227 32.5434" fill="white"/>
<path d="M67.4793 32.5426V33.0838H64.862V34.5595L64.9533 34.649H67.2354V35.131H64.9533L64.862 35.2214V36.8169H67.4793V37.3581H64.1926V32.5426H67.4793Z" fill="white"/>
<path d="M63.4617 32.5426V33.0838H62.0921L62.0009 33.1742V37.3581H61.3314V33.0838H59.8705V32.5426H63.4617Z" fill="white"/>
<path d="M84.0964 32.5427V36.8169H86.4707V37.3581H83.3664V32.633C83.5434 32.4562 83.862 32.5738 84.0964 32.5427Z" fill="white"/>
<path d="M111.73 32.5427V36.8169H114.104V37.3581H111V32.633C111.177 32.4562 111.496 32.5738 111.73 32.5427Z" fill="white"/>
<path d="M98.4007 32.5426H97.7312V37.3581H98.4007V32.5426Z" fill="white"/>
<path d="M124.574 32.5426H123.904V37.3581H124.574V32.5426Z" fill="white"/>
<mask id="mask0_407_26" style="mask-type:luminance" maskUnits="userSpaceOnUse" x="5" y="4" width="32" height="39">
<path d="M16.4779 30.4814C17.3416 32.6392 17.2952 33.0885 19.3382 34.3025C21.382 35.5165 23.2433 37.4492 23.2433 37.4492L26.6945 42.1246L36.6854 17.9864L27.2845 23.6951L24.742 30.4371C24.742 30.4371 18.3116 14.2619 17.8522 13.009C17.392 11.756 16.0114 10.5031 16.0114 10.5031L5.65468 4.57877C5.65468 4.57877 15.6157 28.3244 16.4779 30.4814Z" fill="white"/>
</mask>
<g mask="url(#mask0_407_26)">
<path d="M35.9804 0.00234819L0.00038147 5.43311L6.35808 46.7037L42.3381 41.2729L35.9804 0.00234819Z" fill="url(#paint0_linear_407_26)"/>
</g>
<mask id="mask1_407_26" style="mask-type:luminance" maskUnits="userSpaceOnUse" x="23" y="4" width="19" height="19">
<path d="M27.6071 13.0837C27.3168 13.2543 27.0934 13.5159 26.9706 13.8266L23.4589 22.7178L37.9701 14.0018C38.2611 13.8274 38.4838 13.5611 38.6033 13.2457L41.8091 4.74774L27.6079 13.0837H27.6071Z" fill="white"/>
</mask>
<g mask="url(#mask1_407_26)">
<path d="M41.3907 2.04222L20.7523 5.15735L23.8748 25.427L44.5132 22.3119L41.3907 2.04222Z" fill="url(#paint1_linear_407_26)"/>
</g>
</g>
<defs>
<linearGradient id="paint0_linear_407_26" x1="18.8071" y1="7.65662" x2="23.9973" y2="42.0426" gradientUnits="userSpaceOnUse">
<stop stop-color="#C09B6B"/>
<stop offset="1" stop-color="#956C49"/>
</linearGradient>
<linearGradient id="paint1_linear_407_26" x1="31.4624" y1="5.74597" x2="36.6525" y2="40.1319" gradientUnits="userSpaceOnUse">
<stop stop-color="#C09B6B"/>
<stop offset="1" stop-color="#956C49"/>
</linearGradient>
<clipPath id="clip0_407_26">
<rect width="125" height="46.7033" fill="white"/>
</clipPath>
</defs>
</svg>
